<svg width="31" height="21" viewBox="0 0 31 21" fill="none" xmlns="http://www.w3.org/2000/svg">
<path d="M16.167 11.4758L11.5277 19.4213L6.88848 11.4758H16.167ZM17.4098 10.7656H5.64062L11.5277 20.8267L17.4098 10.7656Z" fill="white"/>
<path d="M24.2323 1.5936L28.8716 9.53912H19.5931L24.2323 1.5936ZM24.2323 0.17334L18.3452 10.2344H30.1194L24.2323 0.17334Z" fill="white"/>
<path d="M0 0.17334L4.93613 9.07233L10.3301 0.396795L0 0.17334Z" fill="#FF7A00"/>
<path d="M11.5275 0.952637L16.7052 9.80197H6.33984L11.5275 0.952637Z" fill="#FF7A00"/>
<path d="M18.0391 11.7344L23.2218 20.8271H12.6099L17.8781 11.7344H18.0391Z" fill="#FF7A00"/>
<path d="M19.1606 11.1831L24.2326 20.1367L29.375 11.1831H19.1606Z" fill="#FF7A00"/>
</svg>
