<svg width="31" height="21" viewBox="0 0 31 21" fill="none" xmlns="http://www.w3.org/2000/svg">
<path d="M16.167 11.4758L11.5277 19.4213L6.88848 11.4758H16.167ZM17.4098 10.7656H5.64062L11.5277 20.8267L17.4098 10.7656Z" fill="white"/>
<path d="M24.2328 1.59336L28.872 9.53887H19.5936L24.2328 1.59336ZM24.2328 0.173096L18.3457 10.2341H30.1199L24.2328 0.173096Z" fill="white"/>
<path d="M0 0.173096L4.93613 9.07209L10.3301 0.396551L0 0.173096Z" fill="#06A5E9"/>
<path d="M11.5275 0.952637L16.7052 9.80197H6.33984L11.5275 0.952637Z" fill="#06A5E9"/>
<path d="M18.0386 11.7339L23.2213 20.8266H12.6094L17.8776 11.7339H18.0386Z" fill="#06A5E9"/>
<path d="M19.1611 11.1829L24.2331 20.1365L29.3755 11.1829H19.1611Z" fill="#06A5E9"/>
</svg>
