<svg width="31" height="21" viewBox="0 0 31 21" fill="none" xmlns="http://www.w3.org/2000/svg">
<path d="M16.1669 11.4759L11.5276 19.4214L6.88839 11.4759H16.1669ZM17.4097 10.7657H5.64053L11.5276 20.8268L17.4097 10.7657Z" fill="white"/>
<path d="M24.2327 1.59348L28.872 9.53899H19.5935L24.2327 1.59348ZM24.2327 0.173218L18.3456 10.2342H30.1198L24.2327 0.173218Z" fill="white"/>
<path d="M0 0.173218L4.93613 9.07221L10.3301 0.396673L0 0.173218Z" fill="#FF7A00"/>
<path d="M11.5277 0.952789L16.7054 9.80213H6.34003L11.5277 0.952789Z" fill="#FF7A00"/>
<path d="M18.0388 11.7341L23.2214 20.8268H12.6095L17.8777 11.7341H18.0388Z" fill="#FF7A00"/>
<path d="M19.1608 11.1829L24.2327 20.1365L29.3751 11.1829H19.1608Z" fill="#FF7A00"/>
</svg>
