<svg width="308" height="303" viewBox="0 0 308 303" fill="none" xmlns="http://www.w3.org/2000/svg">
<path d="M153.669 264.91C219.49 264.91 272.848 261.795 272.848 257.952C272.848 254.109 219.49 250.994 153.669 250.994C87.8477 250.994 34.4893 254.109 34.4893 257.952C34.4893 261.795 87.8477 264.91 153.669 264.91Z" fill="#F5F5F5"/>
<path d="M214.675 102.556L208.577 100.098C208.577 100.098 200.531 114.77 198.226 115.514C195.091 116.522 188.6 119.325 184.752 119.816C184.23 120.431 183.376 122.343 183.455 123.037C188.625 124.765 199.984 122.472 202.418 120.665C207.956 116.565 214.675 102.556 214.675 102.556Z" fill="#E58A7B"/>
<path d="M216.55 99.2186C217.687 103.417 211.528 111.863 211.528 111.863L203.457 107.339C203.457 107.339 204.969 103.866 206.813 100.331C209.77 94.6209 215.253 94.4303 216.55 99.2186Z" fill="#FF7A00"/>
<path opacity="0.2" d="M216.55 99.2186C217.687 103.417 211.528 111.863 211.528 111.863L203.457 107.339C203.457 107.339 204.969 103.866 206.813 100.331C209.77 94.6209 215.253 94.4303 216.55 99.2186Z" fill="black"/>
<path opacity="0.2" d="M206.66 109.146L209.838 110.928L210.397 101.173C208.547 102.593 207.244 106.871 206.66 109.146Z" fill="black"/>
<path d="M211.239 96.059C211.239 96.059 204.957 110.037 208.621 136.062H233.374C233.767 132.263 232.464 113.725 237.179 95.8254C234.463 95.2947 231.716 94.9436 228.954 94.7743C225.452 94.5713 221.94 94.5713 218.437 94.7743C216.009 95.0209 213.603 95.4503 211.239 96.059Z" fill="#FF7A00"/>
<path opacity="0.2" d="M211.239 96.059C211.239 96.059 204.957 110.037 208.621 136.062H233.374C233.767 132.263 232.464 113.725 237.179 95.8254C234.463 95.2947 231.716 94.9436 228.954 94.7743C225.452 94.5713 221.94 94.5713 218.437 94.7743C216.009 95.0209 213.603 95.4503 211.239 96.059Z" fill="black"/>
<g style="mix-blend-mode:multiply">
<path d="M205.498 258.505C205.461 259.169 214.847 259.704 226.459 259.704C238.07 259.704 247.523 259.169 247.56 258.505C247.597 257.842 238.217 257.313 226.6 257.313C214.983 257.313 205.541 257.848 205.498 258.505Z" fill="#E8ECF1"/>
</g>
<path d="M222.021 241.063L217.631 242.762L221.413 252.532L225.803 250.832L222.021 241.063Z" fill="#E58A7B"/>
<path d="M241.598 253.779H236.969L235.273 243.065H239.901L241.598 253.779Z" fill="#E58A7B"/>
<path d="M236.65 253.244H241.85C241.94 253.244 242.027 253.277 242.096 253.335C242.165 253.394 242.21 253.475 242.225 253.564L242.895 257.676C242.909 257.779 242.901 257.884 242.871 257.984C242.84 258.083 242.789 258.176 242.72 258.254C242.652 258.332 242.567 258.394 242.472 258.437C242.377 258.479 242.274 258.501 242.169 258.5C240.356 258.469 239.483 258.358 237.197 258.358C235.789 258.358 232.894 258.506 230.939 258.506C228.985 258.506 228.856 256.588 229.661 256.41C233.275 255.629 234.677 254.566 235.881 253.533C236.094 253.346 236.367 253.244 236.65 253.244Z" fill="#263238"/>
<path d="M221.283 251.658L226.201 250.22C226.288 250.195 226.382 250.201 226.466 250.237C226.55 250.272 226.619 250.336 226.662 250.416L228.506 254.104C228.548 254.198 228.57 254.3 228.57 254.403C228.569 254.505 228.546 254.607 228.502 254.7C228.458 254.793 228.395 254.876 228.316 254.941C228.236 255.007 228.144 255.055 228.045 255.082C226.256 255.573 225.057 255.875 222.82 256.526C221.277 256.975 219.703 257.706 218.179 258.192C217.122 258.53 214.639 258.542 213.354 258.542C211.454 258.542 211.03 256.538 211.848 256.446C213.907 256.219 214.184 256.323 215.321 255.752C217.181 254.938 218.868 253.774 220.287 252.322C220.555 252.017 220.899 251.788 221.283 251.658Z" fill="#263238"/>
<path d="M185.527 119.792L180.438 117.659L178.342 123.301C180.428 123.619 182.55 123.619 184.636 123.301L185.527 119.792Z" fill="#E58A7B"/>
<path d="M176.651 117.511L176.516 121.261L178.342 123.289L180.438 117.646L176.651 117.511Z" fill="#E58A7B"/>
<path d="M222.623 241.893L218.219 243.593L220.17 248.645L224.574 246.944L222.623 241.893Z" fill="#CF6F64"/>
<path d="M239.901 243.065H235.273L236.152 248.591H240.78L239.901 243.065Z" fill="#CF6F64"/>
<path opacity="0.2" d="M207.834 129.024C207.926 130.137 208.031 131.274 208.166 132.442L226.569 126.467C229.443 125.615 231.941 123.809 233.65 121.347C233.724 119.706 233.816 117.978 233.958 116.177C234.019 115.305 234.093 114.407 234.173 113.497C234.253 112.588 234.363 111.58 234.48 110.608L207.834 129.024Z" fill="black"/>
<path d="M213.845 108.863L213.23 108.789C213.593 105.716 215.886 103.294 218.302 103.356V103.97C216.187 103.927 214.171 106.109 213.845 108.863Z" fill="white"/>
<path d="M217.122 114.536H217.017V113.922C219.132 114.002 221.117 111.795 221.443 109.047L222.057 109.121C221.732 112.127 219.513 114.536 217.122 114.536Z" fill="white"/>
<path d="M228.61 82.9297C227.743 86.3165 226.723 92.5186 228.954 94.7745C228.954 94.7745 227.393 98.2105 221.105 98.2105C215.357 98.2105 218.437 94.7745 218.437 94.7745C222.26 93.8771 222.328 91.0864 221.824 88.4433L228.61 82.9297Z" fill="#E58A7B"/>
<path d="M225.844 85.1797L221.83 88.4436C221.954 89.051 222.026 89.6679 222.045 90.2876C223.219 91.4555 225.573 88.4989 225.813 86.9868C225.935 86.3915 225.945 85.7788 225.844 85.1797Z" fill="#CF6F64"/>
<path d="M214.927 82.8868C215.207 83.3709 215.583 83.7921 216.032 84.1242C216.482 84.4563 216.995 84.6921 217.54 84.8169C219.015 85.1426 219.753 83.7842 219.347 82.4196C218.984 81.1903 217.773 79.5368 216.274 79.8196C215.952 79.8857 215.652 80.0279 215.397 80.2342C215.142 80.4405 214.94 80.7049 214.808 81.0053C214.676 81.3056 214.618 81.6332 214.639 81.9606C214.66 82.2879 214.759 82.6055 214.927 82.8868Z" fill="#CF6F64"/>
<path d="M217.367 72.05C215.068 73.1011 214.257 82.2352 217.146 83.5875C220.035 84.9398 221.719 70.0523 217.367 72.05Z" fill="#263238"/>
<path d="M229.31 77.8338C228.757 82.4193 228.696 85.1177 226.237 87.4658C225.475 88.245 224.513 88.7984 223.456 89.0651C222.399 89.3318 221.29 89.3013 220.249 88.977C219.209 88.6526 218.278 88.0471 217.56 87.2272C216.842 86.4073 216.365 85.405 216.181 84.3309C215.437 80.2126 216.464 73.4081 221.061 71.5825C222.027 71.1564 223.09 70.9965 224.138 71.1193C225.187 71.242 226.184 71.643 227.025 72.2807C227.867 72.9184 228.522 73.7696 228.924 74.746C229.326 75.7224 229.459 76.7885 229.31 77.8338Z" fill="#E58A7B"/>
<path d="M221.756 74.4226C225.161 73.5559 227.663 72.9658 226.766 75.7995C225.579 79.5859 224.153 83.2493 226.065 83.4153C227.233 83.5198 232.396 81.3315 231.738 79.1126C231.167 77.1825 233.582 76.6539 234.013 75.6765C235.605 72.136 231.05 72.6032 231.861 70.4518C232.673 68.3004 228.173 64.8337 225.715 66.5609C221.713 69.3515 214.847 69.3085 218.455 64.7169C221.043 61.4407 216.427 62.1107 216.427 62.1107C216.427 62.1107 219.217 63.7641 214.521 66.3212C209.555 69.0503 214.109 76.3834 221.756 74.4226Z" fill="#263238"/>
<path d="M231.118 82.8868C230.446 83.8595 229.436 84.5475 228.284 84.8169C226.766 85.1426 226.182 83.7842 226.754 82.4196C227.264 81.1903 228.665 79.5368 230.116 79.8196C231.567 80.1023 231.898 81.682 231.118 82.8868Z" fill="#E58A7B"/>
<path d="M208.62 136.062C208.62 136.062 204.465 173.25 204.139 187.363C203.808 202.042 218.222 247.841 218.222 247.841L225.598 244.768C225.598 244.768 216.992 202.921 218.222 188.507C219.525 172.789 224.909 136.087 224.909 136.087L208.62 136.062Z" fill="#FF7A00"/>
<path opacity="0.2" d="M218.947 146.272C215.634 153.144 217.865 166.735 219.66 174.787C220.342 169.101 221.153 162.93 221.922 157.22C221.848 148.442 221.166 141.662 218.947 146.272Z" fill="black"/>
<path d="M225.272 242.333C225.309 242.333 226.145 244.682 226.145 244.682L217.638 248.259L216.298 245.763L225.272 242.333Z" fill="#FF7A00"/>
<path d="M217.404 136.062C217.404 136.062 220.582 171.431 222.684 184.677C224.996 199.19 234.056 247.522 234.056 247.522H242.532C242.532 247.522 237.455 200.364 236.496 185.993C235.451 170.404 233.374 136.062 233.374 136.062H217.404Z" fill="#FF7A00"/>
<path d="M242.661 245.315C242.698 245.315 242.944 247.681 242.944 247.681H233.626L232.962 244.964L242.661 245.315Z" fill="#FF7A00"/>
<path opacity="0.2" d="M239.416 242.511C239.396 242.512 239.378 242.505 239.363 242.493C239.348 242.48 239.339 242.463 239.336 242.444C239.286 242.014 234.707 199.417 233.847 186.508C232.912 172.506 231.031 141.447 231.013 141.133C231.012 141.123 231.013 141.113 231.017 141.103C231.02 141.093 231.025 141.084 231.032 141.077C231.039 141.069 231.048 141.063 231.057 141.059C231.066 141.055 231.077 141.053 231.087 141.053C231.107 141.053 231.126 141.061 231.141 141.074C231.156 141.088 231.165 141.107 231.167 141.127C231.167 141.44 233.066 172.475 234 186.502C234.861 199.41 239.44 241.977 239.483 242.438C239.485 242.448 239.485 242.458 239.482 242.468C239.479 242.478 239.475 242.488 239.468 242.496C239.462 242.504 239.454 242.511 239.445 242.515C239.436 242.52 239.426 242.523 239.416 242.524V242.511Z" fill="black"/>
<path d="M222.279 79.1127C222.279 79.4876 222.045 79.7888 221.799 79.7888C221.553 79.7888 221.375 79.4876 221.4 79.1127C221.424 78.7377 221.633 78.4365 221.879 78.4365C222.125 78.4365 222.303 78.7439 222.279 79.1127Z" fill="#263238"/>
<path d="M218.062 79.1127C218.062 79.4876 217.822 79.7888 217.583 79.7888C217.343 79.7888 217.159 79.4876 217.177 79.1127C217.195 78.7377 217.417 78.4365 217.663 78.4365C217.909 78.4365 218.087 78.7439 218.062 79.1127Z" fill="#263238"/>
<path d="M219.39 79.3032C218.877 80.4482 218.215 81.5207 217.423 82.4934C218.038 83.1081 219.187 82.8253 219.187 82.8253L219.39 79.3032Z" fill="#DF5753"/>
<path d="M219.5 84.3925C219.486 84.3925 219.472 84.3897 219.459 84.384C219.446 84.3784 219.434 84.3701 219.424 84.3598C219.414 84.3494 219.407 84.3372 219.402 84.3238C219.397 84.3104 219.395 84.2961 219.396 84.2819C219.397 84.252 219.41 84.2238 219.432 84.2032C219.454 84.1827 219.483 84.1712 219.512 84.1712C219.983 84.1745 220.447 84.0724 220.873 83.8724C221.298 83.6724 221.674 83.3797 221.971 83.0156C221.992 82.9971 222.02 82.9868 222.048 82.9868C222.076 82.9868 222.104 82.9971 222.125 83.0156C222.145 83.0363 222.156 83.0638 222.156 83.0925C222.156 83.1211 222.145 83.1487 222.125 83.1693C221.806 83.5562 221.405 83.8669 220.951 84.0786C220.497 84.2902 220.001 84.3975 219.5 84.3925Z" fill="#263238"/>
<path d="M223.028 77.9812C222.999 77.9963 222.966 78.0042 222.933 78.0042C222.9 78.0042 222.867 77.9963 222.838 77.9812C222.608 77.8326 222.346 77.7401 222.074 77.7113C221.802 77.6825 221.526 77.7181 221.271 77.8153C221.246 77.8278 221.218 77.8351 221.19 77.8369C221.163 77.8387 221.135 77.8349 221.108 77.8257C221.082 77.8166 221.058 77.8022 221.037 77.7835C221.016 77.7648 221 77.7422 220.988 77.7169C220.965 77.6622 220.964 77.6008 220.986 77.5457C221.008 77.4906 221.05 77.4461 221.105 77.4219C221.426 77.2906 221.774 77.2389 222.12 77.271C222.465 77.3031 222.798 77.4181 223.09 77.6063C223.113 77.6223 223.134 77.6428 223.149 77.6667C223.165 77.6906 223.175 77.7173 223.181 77.7453C223.186 77.7733 223.185 77.8021 223.179 77.8299C223.173 77.8578 223.162 77.8841 223.145 77.9075C223.114 77.9427 223.074 77.9683 223.028 77.9812Z" fill="#263238"/>
<path d="M216.433 76.7525C216.4 76.7446 216.37 76.7275 216.347 76.7033C216.326 76.6833 216.31 76.6594 216.299 76.633C216.288 76.6066 216.282 76.5783 216.282 76.5497C216.282 76.521 216.288 76.4927 216.299 76.4663C216.31 76.4399 216.326 76.416 216.347 76.396C216.582 76.1318 216.876 75.9255 217.204 75.7933C217.533 75.6611 217.887 75.6065 218.24 75.6338C218.268 75.6382 218.295 75.6483 218.32 75.6635C218.344 75.6788 218.365 75.6989 218.381 75.7225C218.397 75.7461 218.408 75.7728 218.413 75.8009C218.419 75.829 218.418 75.8579 218.412 75.8858C218.399 75.9427 218.365 75.9929 218.318 76.0268C218.27 76.0608 218.212 76.0762 218.154 76.0702C217.875 76.0526 217.595 76.0988 217.336 76.2053C217.077 76.3118 216.846 76.4758 216.66 76.6849C216.632 76.716 216.596 76.7388 216.556 76.7507C216.516 76.7626 216.473 76.7633 216.433 76.7525Z" fill="#263238"/>
<path d="M239.557 101.874L233.165 100.171C233.165 100.171 226.895 115.606 224.676 116.608C221.664 117.985 214.036 122.755 210.791 125.01C210.612 125.779 210.754 127.813 211.159 128.373C216.692 127.365 227.282 123.289 229.495 121.218C234.542 116.491 239.557 101.874 239.557 101.874Z" fill="#E58A7B"/>
<path d="M235.094 254.055C234.782 254.08 234.472 253.995 234.215 253.816C234.136 253.744 234.077 253.653 234.044 253.552C234.01 253.451 234.004 253.342 234.025 253.238C234.029 253.173 234.05 253.109 234.087 253.055C234.124 253.001 234.175 252.958 234.234 252.93C234.75 252.666 236.195 253.582 236.361 253.687C236.379 253.698 236.393 253.715 236.401 253.735C236.408 253.755 236.41 253.777 236.404 253.797C236.398 253.819 236.388 253.838 236.373 253.855C236.358 253.871 236.339 253.883 236.318 253.889C235.917 253.988 235.507 254.043 235.094 254.055ZM234.48 253.096C234.433 253.086 234.385 253.086 234.338 253.096C234.315 253.108 234.295 253.127 234.282 253.15C234.269 253.173 234.263 253.199 234.265 253.226C234.248 253.297 234.251 253.372 234.272 253.442C234.294 253.512 234.334 253.575 234.388 253.625C234.627 253.84 235.23 253.865 236.023 253.711C235.55 253.4 235.019 253.191 234.461 253.096H234.48Z" fill="#FF7A00"/>
<path d="M236.287 253.889C236.271 253.895 236.254 253.895 236.238 253.889C235.777 253.631 234.91 252.617 235.039 252.101C235.059 252.019 235.105 251.946 235.171 251.893C235.236 251.841 235.318 251.812 235.402 251.812C235.484 251.801 235.568 251.808 235.648 251.832C235.728 251.856 235.801 251.898 235.863 251.953C236.373 252.39 236.404 253.73 236.404 253.797C236.407 253.817 236.403 253.838 236.393 253.856C236.383 253.874 236.367 253.888 236.349 253.895C236.328 253.9 236.307 253.898 236.287 253.889ZM235.463 252.015H235.42C235.279 252.015 235.261 252.094 235.254 252.125C235.181 252.426 235.728 253.195 236.183 253.557C236.181 253.038 236.02 252.532 235.722 252.107C235.65 252.045 235.558 252.012 235.463 252.015Z" fill="#FF7A00"/>
<path d="M218.775 253.287C218.399 253.418 217.989 253.418 217.613 253.287C217.528 253.241 217.455 253.174 217.403 253.092C217.35 253.01 217.319 252.917 217.312 252.82C217.304 252.759 217.312 252.697 217.335 252.64C217.357 252.583 217.394 252.533 217.441 252.494C217.933 252.051 219.943 252.494 220.17 252.58C220.192 252.586 220.211 252.598 220.224 252.616C220.238 252.634 220.245 252.656 220.244 252.678C220.245 252.701 220.239 252.724 220.227 252.744C220.215 252.764 220.197 252.779 220.176 252.789C219.724 252.993 219.255 253.16 218.775 253.287ZM217.773 252.555C217.703 252.57 217.637 252.601 217.582 252.648C217.563 252.662 217.548 252.682 217.539 252.705C217.53 252.728 217.528 252.753 217.533 252.777C217.537 252.841 217.557 252.904 217.592 252.958C217.626 253.013 217.674 253.058 217.73 253.09C218.056 253.262 218.812 253.127 219.789 252.715C219.131 252.549 218.449 252.495 217.773 252.555Z" fill="#FF7A00"/>
<path d="M220.158 252.789H220.109C219.494 252.678 218.265 251.972 218.228 251.443C218.228 251.32 218.283 251.148 218.578 251.05C218.678 251.014 218.784 250.999 218.889 251.005C218.995 251.012 219.098 251.039 219.193 251.086C219.857 251.412 220.207 252.592 220.226 252.648C220.23 252.666 220.229 252.686 220.224 252.704C220.219 252.722 220.209 252.739 220.195 252.752C220.186 252.767 220.173 252.78 220.158 252.789ZM218.701 251.234H218.64C218.449 251.302 218.449 251.381 218.449 251.406C218.449 251.726 219.341 252.31 219.961 252.506C219.818 252.013 219.516 251.58 219.101 251.277C218.977 251.214 218.835 251.199 218.701 251.234Z" fill="#FF7A00"/>
<path d="M211.313 124.647L204.902 127.598L204.158 129.442L206.525 131.034C206.525 131.034 210.95 130.554 212.21 127.709L211.313 124.647Z" fill="#E58A7B"/>
<path d="M211.583 128.477C211.44 127.245 211.033 126.059 210.391 124.998L211.405 124.236C212.168 125.458 212.654 126.832 212.831 128.262L211.583 128.477Z" fill="#263238"/>
<path d="M212.677 125.52C212.813 125.733 212.88 125.983 212.868 126.236C212.857 126.488 212.768 126.731 212.613 126.931C212.459 127.131 212.247 127.278 212.006 127.354C211.765 127.429 211.506 127.428 211.266 127.351C211.025 127.274 210.814 127.125 210.661 126.924C210.508 126.723 210.421 126.479 210.412 126.227C210.402 125.974 210.47 125.725 210.607 125.513C210.744 125.301 210.944 125.136 211.178 125.041C211.44 124.907 211.745 124.882 212.026 124.972C212.307 125.062 212.541 125.259 212.677 125.52Z" fill="#263238"/>
<path d="M200.568 129.983L201.423 130.844L207.176 128.385L204.902 127.598L200.568 129.983Z" fill="#E58A7B"/>
<path opacity="0.2" d="M225.272 242.333C225.309 242.333 226.145 244.682 226.145 244.682L217.638 248.259L216.298 245.763L225.272 242.333Z" fill="black"/>
<path opacity="0.2" d="M242.661 245.315C242.698 245.315 242.944 247.681 242.944 247.681H233.626L232.962 244.964L242.661 245.315Z" fill="black"/>
<path d="M241.223 100.104C242.913 105.556 236.306 113.012 236.306 113.012L227.178 109.287C228.26 106.136 229.507 103.044 230.915 100.024C233.718 93.9816 239.514 94.6024 241.223 100.104Z" fill="#FF7A00"/>
<path opacity="0.2" d="M241.223 100.104C242.913 105.556 236.306 113.012 236.306 113.012L227.178 109.287C228.26 106.136 229.507 103.044 230.915 100.024C233.718 93.9816 239.514 94.6024 241.223 100.104Z" fill="black"/>
<path d="M150.522 45.4775H146.594V46.1107H150.522V45.4775Z" fill="#FF7A00"/>
<path d="M201.367 70.5356L200.892 81.085L201.524 81.1135L201.999 70.5641L201.367 70.5356Z" fill="#FF7A00"/>
<path d="M200.145 48.3174H127.613L120.864 199.355H193.395L200.145 48.3174Z" fill="#FF7A00"/>
<path opacity="0.56" d="M197.981 50.395H125.449L118.7 201.433H191.232L197.981 50.395Z" fill="#FAFAFA"/>
<path opacity="0.07" d="M195.817 52.4663H123.286L116.53 203.504H189.062L195.817 52.4663Z" fill="#FF7A00"/>
<path d="M187.562 118.341H125.652L125.136 129.897H187.046L187.562 118.341Z" fill="white"/>
<path d="M159.699 109.908H126.027L125.8 115.077H159.472L159.699 109.908Z" fill="#FF7A00"/>
<path d="M186.167 149.53H124.257L123.74 161.086H185.65L186.167 149.53Z" fill="white"/>
<path opacity="0.47" d="M174.814 176.692H133.182L132.561 190.541H174.193L174.814 176.692Z" fill="#FF7A00"/>
<path d="M172.029 192.692H130.397C130.379 192.697 130.36 192.697 130.342 192.692C130.336 192.675 130.336 192.655 130.342 192.637L130.957 178.782C130.957 178.773 130.959 178.764 130.962 178.755C130.966 178.746 130.972 178.739 130.979 178.732C130.986 178.726 130.994 178.721 131.003 178.718C131.012 178.715 131.021 178.714 131.03 178.715H172.662C172.67 178.711 172.678 178.709 172.687 178.709C172.695 178.709 172.704 178.711 172.712 178.715C172.716 178.722 172.718 178.731 172.718 178.739C172.718 178.748 172.716 178.756 172.712 178.764L172.109 192.649C172.102 192.664 172.09 192.676 172.076 192.683C172.062 192.691 172.045 192.694 172.029 192.692ZM130.471 192.545H171.955L172.57 178.838H131.086L130.471 192.545Z" fill="white"/>
<path d="M152.427 141.097H124.632L124.404 146.272H152.194L152.427 141.097Z" fill="#FF7A00"/>
<path d="M174.021 81.0118C173.862 84.3749 172.666 87.6064 170.597 90.2627C169.066 92.2691 167.095 93.8979 164.836 95.0241C162.577 96.1504 160.09 96.7441 157.566 96.7598C155.526 96.7753 153.505 96.3731 151.627 95.5779C149.748 94.7827 148.053 93.6114 146.644 92.1361C145.236 90.6607 144.144 88.9127 143.437 86.9995C142.729 85.0863 142.421 83.0486 142.531 81.0118C142.747 76.7853 144.57 72.801 147.626 69.8738C150.683 66.9466 154.742 65.2975 158.974 65.2638C161.015 65.2448 163.038 65.6445 164.919 66.4384C166.8 67.2322 168.497 68.4032 169.908 69.8791C171.318 71.355 172.41 73.1044 173.118 75.0192C173.825 76.934 174.133 78.9736 174.021 81.0118Z" fill="white"/>
<path d="M175.502 68.5589C175.462 69.4531 175.144 70.3126 174.593 71.0176C174.184 71.5505 173.66 71.9831 173.059 72.2824C172.458 72.5818 171.797 72.7399 171.126 72.7448C170.475 72.7488 169.834 72.5934 169.258 72.2923C168.681 71.9912 168.187 71.5536 167.819 71.0176C167.331 70.2933 167.09 69.4311 167.13 68.5589C167.19 67.4367 167.675 66.3795 168.487 65.6028C169.299 64.8261 170.377 64.3885 171.501 64.3791C172.043 64.3741 172.58 64.4802 173.08 64.6909C173.579 64.9015 174.03 65.2122 174.405 65.6038C174.78 65.9954 175.071 66.4596 175.26 66.9678C175.448 67.476 175.531 68.0175 175.502 68.5589Z" fill="#FF7A00"/>
<path d="M132.321 124.119C132.292 124.614 132.075 125.08 131.716 125.422C131.357 125.764 130.881 125.958 130.385 125.963C130.145 125.966 129.908 125.92 129.687 125.827C129.466 125.734 129.266 125.597 129.1 125.425C128.934 125.252 128.806 125.047 128.722 124.822C128.639 124.598 128.602 124.358 128.615 124.119C128.641 123.623 128.857 123.155 129.217 122.812C129.577 122.47 130.054 122.277 130.551 122.275C130.79 122.273 131.027 122.32 131.248 122.413C131.469 122.506 131.668 122.643 131.834 122.815C131.999 122.988 132.128 123.193 132.212 123.417C132.296 123.641 132.333 123.88 132.321 124.119Z" fill="#263238"/>
<path d="M140.607 124.119C140.579 124.615 140.363 125.081 140.004 125.424C139.644 125.766 139.167 125.959 138.671 125.963C138.432 125.965 138.195 125.918 137.975 125.825C137.754 125.732 137.556 125.595 137.39 125.422C137.225 125.25 137.097 125.045 137.014 124.821C136.931 124.597 136.894 124.358 136.907 124.119C136.933 123.624 137.148 123.157 137.506 122.815C137.865 122.472 138.341 122.279 138.837 122.275C139.076 122.272 139.314 122.318 139.535 122.411C139.756 122.504 139.956 122.641 140.121 122.814C140.287 122.986 140.416 123.191 140.5 123.416C140.583 123.641 140.62 123.88 140.607 124.119Z" fill="#263238"/>
<path d="M148.899 124.119C148.871 124.615 148.655 125.081 148.296 125.424C147.936 125.766 147.459 125.959 146.963 125.963C146.723 125.965 146.486 125.918 146.266 125.825C146.045 125.732 145.846 125.595 145.68 125.423C145.514 125.25 145.386 125.045 145.302 124.821C145.218 124.597 145.181 124.358 145.193 124.119C145.221 123.623 145.436 123.157 145.796 122.814C146.156 122.472 146.632 122.279 147.129 122.275C147.368 122.272 147.606 122.318 147.827 122.411C148.048 122.504 148.247 122.641 148.413 122.814C148.579 122.986 148.708 123.191 148.792 123.416C148.875 123.641 148.912 123.88 148.899 124.119Z" fill="#263238"/>
<path d="M130.926 155.308C130.896 155.803 130.68 156.269 130.321 156.611C129.962 156.953 129.486 157.147 128.99 157.152C128.75 157.154 128.513 157.107 128.293 157.014C128.072 156.921 127.873 156.784 127.707 156.612C127.541 156.439 127.413 156.234 127.329 156.01C127.245 155.786 127.208 155.547 127.219 155.308C127.247 154.812 127.463 154.346 127.823 154.003C128.183 153.661 128.659 153.468 129.156 153.464C129.395 153.462 129.632 153.509 129.853 153.602C130.073 153.695 130.272 153.832 130.438 154.004C130.604 154.177 130.733 154.382 130.817 154.606C130.9 154.83 130.938 155.069 130.926 155.308Z" fill="#263238"/>
<path d="M139.212 155.308C139.184 155.803 138.969 156.268 138.61 156.611C138.252 156.953 137.777 157.147 137.281 157.152C137.042 157.155 136.804 157.109 136.583 157.016C136.362 156.923 136.163 156.786 135.997 156.613C135.831 156.441 135.702 156.236 135.619 156.011C135.535 155.787 135.499 155.547 135.511 155.308C135.539 154.812 135.755 154.346 136.115 154.003C136.474 153.661 136.951 153.468 137.447 153.464C137.687 153.462 137.923 153.509 138.144 153.602C138.364 153.695 138.563 153.832 138.728 154.005C138.893 154.177 139.021 154.382 139.105 154.606C139.188 154.83 139.224 155.069 139.212 155.308Z" fill="#263238"/>
<path d="M147.522 155.308C147.494 155.803 147.278 156.27 146.919 156.612C146.559 156.955 146.083 157.148 145.586 157.152C145.347 157.153 145.11 157.105 144.89 157.012C144.67 156.919 144.471 156.782 144.305 156.609C144.14 156.437 144.011 156.232 143.927 156.009C143.843 155.785 143.805 155.546 143.816 155.308C143.845 154.812 144.062 154.347 144.421 154.004C144.78 153.662 145.256 153.469 145.752 153.464C145.992 153.461 146.229 153.507 146.45 153.6C146.671 153.692 146.871 153.829 147.037 154.002C147.203 154.175 147.331 154.38 147.415 154.604C147.498 154.829 147.535 155.068 147.522 155.308Z" fill="#263238"/>
<path d="M155.796 155.308C155.766 155.803 155.55 156.269 155.191 156.611C154.831 156.953 154.356 157.147 153.859 157.152C153.62 157.153 153.384 157.106 153.163 157.012C152.943 156.919 152.744 156.782 152.579 156.61C152.413 156.437 152.285 156.233 152.2 156.009C152.116 155.785 152.078 155.547 152.089 155.308C152.119 154.813 152.335 154.347 152.694 154.005C153.054 153.663 153.529 153.469 154.025 153.464C154.265 153.462 154.502 153.509 154.722 153.602C154.943 153.695 155.142 153.832 155.308 154.004C155.474 154.177 155.603 154.382 155.686 154.606C155.77 154.83 155.807 155.069 155.796 155.308Z" fill="#263238"/>
<path d="M164.118 155.308C164.089 155.803 163.872 156.269 163.513 156.611C163.154 156.953 162.678 157.147 162.182 157.152C161.942 157.155 161.705 157.109 161.484 157.016C161.263 156.923 161.063 156.786 160.897 156.613C160.731 156.441 160.603 156.236 160.519 156.011C160.436 155.787 160.399 155.547 160.412 155.308C160.44 154.812 160.655 154.346 161.015 154.003C161.375 153.661 161.851 153.468 162.348 153.464C162.587 153.462 162.824 153.509 163.045 153.602C163.265 153.695 163.465 153.832 163.63 154.004C163.796 154.177 163.925 154.382 164.009 154.606C164.093 154.83 164.13 155.069 164.118 155.308Z" fill="#263238"/>
<path d="M162.86 80.1919C165.433 77.676 165.57 73.6433 163.165 71.1847C160.761 68.726 156.726 68.7724 154.153 71.2883C151.581 73.8042 151.444 77.8369 153.849 80.2956C156.253 82.7542 160.288 82.7078 162.86 80.1919Z" fill="#FF7A00"/>
<path d="M170.597 90.2631C169.066 92.2695 167.095 93.8983 164.836 95.0246C162.577 96.1508 160.09 96.7446 157.566 96.7602C155.118 96.781 152.703 96.1992 150.534 95.0661C148.364 93.9331 146.507 92.2836 145.125 90.2631C148.112 87.2881 152.839 85.3457 158.076 85.3457C163.313 85.3457 167.874 87.2881 170.597 90.2631Z" fill="#FF7A00"/>
<path opacity="0.1" d="M162.86 80.1919C165.433 77.676 165.57 73.6433 163.165 71.1847C160.761 68.726 156.726 68.7724 154.153 71.2883C151.581 73.8042 151.444 77.8369 153.849 80.2956C156.253 82.7542 160.288 82.7078 162.86 80.1919Z" fill="white"/>
<path opacity="0.1" d="M170.597 90.2631C169.066 92.2695 167.095 93.8983 164.836 95.0246C162.577 96.1508 160.09 96.7446 157.566 96.7602C155.118 96.781 152.703 96.1992 150.534 95.0661C148.364 93.9331 146.507 92.2836 145.125 90.2631C148.112 87.2881 152.839 85.3457 158.076 85.3457C163.313 85.3457 167.874 87.2881 170.597 90.2631Z" fill="white"/>
<path d="M80.1597 132.682C79.5758 133.96 78.9611 135.368 78.4264 136.732C77.8916 138.097 77.3445 139.505 76.8712 140.906C75.9049 143.668 75.1688 146.505 74.6707 149.389L74.5355 150.292C74.5226 150.447 74.5371 150.603 74.5785 150.753C74.7236 151.263 74.952 151.745 75.2546 152.179C76.044 153.305 76.9597 154.336 77.9838 155.253C79.0635 156.257 80.1961 157.203 81.3768 158.086C82.557 158.996 83.7986 159.881 85.0218 160.717L83.8724 162.875C80.9516 161.602 78.1792 160.013 75.605 158.135C74.2317 157.134 72.9922 155.961 71.917 154.644C71.2796 153.86 70.7826 152.972 70.4479 152.019C70.2533 151.424 70.1537 150.802 70.1528 150.175C70.1528 150.028 70.1528 149.813 70.1528 149.708V149.407L70.2143 148.792C70.5667 145.59 71.2401 142.431 72.2243 139.363C72.7037 137.851 73.2139 136.345 73.7979 134.876C74.3818 133.407 74.9842 131.969 75.7279 130.475L80.1597 132.682Z" fill="#E58A7B"/>
<path d="M84.155 160.336L88.5008 158.136L87.3759 162.906C87.3759 162.906 84.3947 163.742 83.0117 162.291L84.155 160.336Z" fill="#E58A7B"/>
<path d="M92.4778 158.916L91.3222 162.863L87.376 162.906L88.5008 158.136L92.4778 158.916Z" fill="#E58A7B"/>
<path d="M98.6124 109.668C98.8448 110.52 99.1684 111.345 99.5774 112.127C99.4579 112.263 99.304 112.363 99.132 112.419C98.9599 112.474 98.7761 112.481 98.6001 112.441L98.6124 109.668Z" fill="#DF5753"/>
<path d="M98.4835 109.705C98.7381 109.705 98.9445 109.389 98.9445 108.998C98.9445 108.608 98.7381 108.292 98.4835 108.292C98.2289 108.292 98.0225 108.608 98.0225 108.998C98.0225 109.389 98.2289 109.705 98.4835 109.705Z" fill="#263238"/>
<path d="M98.3477 108.316L99.282 108.052C99.282 108.052 98.8271 108.777 98.3477 108.316Z" fill="#263238"/>
<path d="M86.6078 114.18C87.1671 117.038 87.7265 122.282 85.7227 124.193C85.7227 124.193 86.5094 127.095 91.8264 127.095C97.6719 127.095 94.617 124.193 94.617 124.193C91.4268 123.431 91.5067 121.065 92.0661 118.839L86.6078 114.18Z" fill="#E58A7B"/>
<path d="M85.0526 107.664C85.3476 112.44 85.3722 114.469 87.7817 116.921C91.4145 120.609 97.217 119.208 98.3541 114.463C99.3807 110.16 98.7291 103.079 94.0514 101.18C93.0246 100.757 91.9069 100.603 90.804 100.732C89.7011 100.861 88.6495 101.27 87.7485 101.919C86.8476 102.569 86.1272 103.437 85.6554 104.442C85.1837 105.448 84.9762 106.557 85.0526 107.664Z" fill="#E58A7B"/>
<path d="M85.5258 102.292C83.1285 103.165 79.9322 102.513 81.1862 109.908C82.5139 117.739 80.4731 120.314 80.4731 120.314C80.4731 120.314 89.5642 122.251 98.8458 120.198C98.8458 120.198 96.0121 115.243 96.8051 111.592C97.8193 106.982 97.0202 105.279 97.0202 105.279C97.0202 105.279 88.8942 101.063 85.5258 102.292Z" fill="#263238"/>
<path d="M95.668 110.154C95.6705 111.062 95.9305 111.951 96.4179 112.717C97.0694 113.713 97.8378 113.332 98.0283 112.275C98.2004 111.347 98.0713 109.705 97.2415 109.066C96.4117 108.427 95.6803 109.054 95.668 110.154Z" fill="#E58A7B"/>
<path d="M83.4423 103.097C82.7538 101.161 86.0362 98.1801 92.982 99.4094C99.9278 100.639 100.229 106.423 100.229 106.423L98.8276 104.751L98.889 106.509L91.7527 107.88L83.4423 103.097Z" fill="#263238"/>
<path d="M84.0319 124.519C83.9909 124.238 84.0612 123.952 84.2276 123.723C84.3941 123.493 84.6437 123.338 84.9232 123.289C87.0869 122.933 92.0043 122.208 94.4753 122.552C96.3193 122.81 96.7987 123.879 96.8786 124.758C96.8912 124.912 96.8706 125.067 96.8183 125.212C96.766 125.358 96.6832 125.49 96.5755 125.601C96.4677 125.711 96.3376 125.798 96.1937 125.854C96.0499 125.91 95.8957 125.935 95.7415 125.926L85.0584 125.447C84.8066 125.434 84.5669 125.335 84.3798 125.166C84.1928 124.997 84.0699 124.768 84.0319 124.519Z" fill="#FF7A00"/>
<path opacity="0.6" d="M84.0319 124.519C83.9909 124.238 84.0612 123.952 84.2276 123.723C84.3941 123.493 84.6437 123.338 84.9232 123.289C87.0869 122.933 92.0043 122.208 94.4753 122.552C96.3193 122.81 96.7987 123.879 96.8786 124.758C96.8912 124.912 96.8706 125.067 96.8183 125.212C96.766 125.358 96.6832 125.49 96.5755 125.601C96.4677 125.711 96.3376 125.798 96.1937 125.854C96.0499 125.91 95.8957 125.935 95.7415 125.926L85.0584 125.447C84.8066 125.434 84.5669 125.335 84.3798 125.166C84.1928 124.997 84.0699 124.768 84.0319 124.519Z" fill="black"/>
<path d="M90.21 231.903L94.1746 234.656L100.807 225.664L96.8423 222.916L90.21 231.903Z" fill="#E58A7B"/>
<path d="M80.9648 231.724L85.1508 234.109L91.0209 224.6L86.835 222.215L80.9648 231.724Z" fill="#E58A7B"/>
<path d="M100.8 225.664L97.3826 230.298L93.418 227.551L96.8356 222.916L100.8 225.664Z" fill="#CF6F64"/>
<path d="M86.8289 222.215L91.021 224.606L87.9968 229.505L83.8047 227.114L86.8289 222.215Z" fill="#CF6F64"/>
<path d="M93.5536 154.54C93.5536 154.54 109.031 174.043 106.124 192.699C103.782 207.764 90.1975 228.165 90.1975 228.165L83.811 224.994C88.3126 215.973 92.1541 206.639 95.3054 197.063C96.2772 194.09 96.5608 190.935 96.1349 187.836C95.709 184.738 94.5846 181.776 92.8467 179.176C85.0035 167.724 72.4395 174.541 80.8913 154.54H93.5536Z" fill="#FF7A00"/>
<path opacity="0.6" d="M93.5536 154.54C93.5536 154.54 109.031 174.043 106.124 192.699C103.782 207.764 90.1975 228.165 90.1975 228.165L83.811 224.994C88.3126 215.973 92.1541 206.639 95.3054 197.063C96.2772 194.09 96.5608 190.935 96.1349 187.836C95.709 184.738 94.5846 181.776 92.8467 179.176C85.0035 167.724 72.4395 174.541 80.8913 154.54H93.5536Z" fill="black"/>
<path opacity="0.4" d="M101.145 167.067L98.895 164.829C98.895 165.007 103.253 191.912 104.476 199.472C105.198 197.264 105.751 195.003 106.13 192.711C107.568 183.558 104.562 174.209 101.145 167.067Z" fill="black"/>
<path d="M100.462 154.54C100.462 154.54 119.099 179.053 119.628 193.75C120.064 206.043 99.3435 229.862 99.3435 229.862L93.3197 225.965C93.3197 225.965 105.447 209.049 108.502 195.231C107.322 181.536 82.3662 154.54 82.3662 154.54H100.462Z" fill="#FF7A00"/>
<path opacity="0.6" d="M100.462 154.54C100.462 154.54 119.099 179.053 119.628 193.75C120.064 206.043 99.3435 229.862 99.3435 229.862L93.3197 225.965C93.3197 225.965 105.447 209.049 108.502 195.231C107.322 181.536 82.3662 154.54 82.3662 154.54H100.462Z" fill="black"/>
<path d="M77.4061 125.287C75.4146 125.761 73.5029 133.001 73.5029 133.001L81.2909 138.202C81.2909 138.202 83.8848 132.473 82.9751 129.965C82.0346 127.353 79.9078 124.691 77.4061 125.287Z" fill="#FF7A00"/>
<path opacity="0.2" d="M78.9306 129.953L78.3896 136.265L81.2848 138.208C82.0842 136.408 82.676 134.523 83.0489 132.59L78.9306 129.953Z" fill="black"/>
<path d="M102.768 125.428C102.768 125.428 105.067 126.234 100.463 154.533H80.8792C81.2111 146.543 81.2172 141.625 77.4062 125.287C80.1484 124.722 82.9278 124.356 85.7228 124.193C88.6838 123.981 91.6562 123.981 94.6171 124.193C98.4404 124.543 102.768 125.428 102.768 125.428Z" fill="#FF7A00"/>
<path d="M104.759 129.953C105.201 131.182 105.669 132.504 106.16 133.776C106.652 135.048 107.119 136.358 107.617 137.648L109.123 141.509L109.504 142.474L109.701 142.953L109.793 143.193C109.793 143.236 109.793 143.236 109.793 143.23C109.681 143.071 109.533 142.941 109.363 142.849C109.12 142.705 108.845 142.623 108.564 142.609C108.33 142.602 108.097 142.646 107.881 142.738C107.599 142.867 107.599 142.922 107.605 142.916C107.656 142.875 107.701 142.828 107.74 142.775C108.08 142.328 108.375 141.848 108.619 141.343C108.908 140.777 109.185 140.175 109.461 139.566C110.002 138.337 110.5 137.064 110.998 135.78C111.496 134.495 111.969 133.198 112.43 131.889L113.831 127.967L116.198 128.582C115.731 131.385 115.128 134.114 114.403 136.892C114.053 138.275 113.641 139.646 113.174 141.029C112.94 141.724 112.682 142.412 112.387 143.119C112.079 143.886 111.701 144.623 111.256 145.32C111.092 145.554 110.912 145.776 110.715 145.983C110.401 146.322 110.02 146.592 109.596 146.776C109.22 146.938 108.813 147.013 108.404 146.998C107.946 146.981 107.499 146.847 107.107 146.61C106.644 146.321 106.259 145.922 105.988 145.449C105.896 145.289 105.816 145.129 105.761 145.012L105.644 144.779L105.41 144.299L104.943 143.346C104.329 142.068 103.714 140.777 103.179 139.48C102.644 138.183 102.079 136.868 101.55 135.546C101.022 134.225 100.548 132.903 100.1 131.477L104.759 129.953Z" fill="#E58A7B"/>
<path d="M102.767 125.428C105.122 125.988 107.771 132.946 107.771 132.946L100.77 138.902C100.77 138.902 96.2396 131.317 97.1555 128.815C98.1082 126.209 99.6941 124.697 102.767 125.428Z" fill="#FF7A00"/>
<path d="M114.944 125.767L117.403 123.714L119.112 126.375L117.852 128.594C117.852 128.594 115.848 130.438 114.078 129.498C113.797 128.866 113.729 128.16 113.886 127.487C114.042 126.814 114.414 126.21 114.944 125.767Z" fill="#E58A7B"/>
<path d="M121.841 123.72L121.657 124.39L117.766 125.042L117.385 123.714L121.841 123.72Z" fill="#E58A7B"/>
<path d="M99.8233 230.175L92.8037 225.639L94.0638 223.451L101.95 228.3L99.8233 230.175Z" fill="#FF7A00"/>
<path d="M87.8985 233.79C87.2826 233.714 86.6908 233.505 86.1651 233.175C86.1434 233.168 86.1246 233.153 86.1113 233.135C86.098 233.116 86.0908 233.094 86.0908 233.071C86.0908 233.048 86.098 233.025 86.1113 233.006C86.1246 232.988 86.1434 232.974 86.1651 232.966C86.3556 232.905 88.0091 232.394 88.4886 232.788C88.5425 232.833 88.5834 232.891 88.6072 232.957C88.631 233.023 88.6367 233.094 88.6238 233.163C88.6153 233.273 88.5786 233.38 88.5173 233.473C88.456 233.565 88.372 233.64 88.2734 233.691C88.1583 233.754 88.0296 233.788 87.8985 233.79ZM86.5155 233.114C87.2838 233.507 87.8985 233.648 88.1935 233.501C88.2578 233.465 88.3118 233.414 88.3506 233.351C88.3893 233.289 88.4114 233.218 88.4148 233.144C88.4148 233.046 88.4148 233.003 88.3595 232.978C88.1013 232.769 87.1793 232.929 86.5032 233.114H86.5155Z" fill="#263238"/>
<path d="M86.2084 233.218C86.176 233.218 86.145 233.204 86.1223 233.181C86.1132 233.164 86.1084 233.145 86.1084 233.126C86.1084 233.107 86.1132 233.087 86.1223 233.07C86.1223 233.015 86.5219 231.681 87.1488 231.38C87.2289 231.344 87.3159 231.325 87.4039 231.325C87.492 231.325 87.5789 231.344 87.659 231.38C87.7453 231.407 87.8201 231.463 87.8713 231.537C87.9225 231.612 87.9474 231.702 87.9418 231.792C87.8988 232.345 86.7739 233.107 86.2576 233.236L86.2084 233.218ZM87.4009 231.54C87.3411 231.542 87.2824 231.556 87.2288 231.583C86.8477 231.767 86.5342 232.487 86.3805 232.923C86.9214 232.696 87.6652 232.093 87.6898 231.755C87.6898 231.7 87.6898 231.632 87.5484 231.571C87.5024 231.546 87.4525 231.529 87.4009 231.522V231.54Z" fill="#263238"/>
<path d="M96.67 236.445C95.9754 236.445 95.0103 235.554 94.4817 235.007C94.4682 234.988 94.4609 234.965 94.4609 234.942C94.4609 234.919 94.4682 234.896 94.4817 234.878C94.4938 234.858 94.5111 234.842 94.5317 234.831C94.5522 234.82 94.5753 234.815 94.5985 234.816C94.8444 234.816 96.9773 235.136 97.2785 235.738C97.3104 235.792 97.3272 235.854 97.3272 235.916C97.3272 235.979 97.3104 236.041 97.2785 236.095C97.2333 236.188 97.1651 236.269 97.0801 236.329C96.9952 236.39 96.8964 236.427 96.7929 236.439L96.67 236.445ZM94.8874 235.093C95.6619 235.843 96.3442 236.261 96.7314 236.211C96.7992 236.203 96.8638 236.177 96.9196 236.138C96.9753 236.098 97.0204 236.045 97.051 235.984C97.0648 235.963 97.0721 235.938 97.0721 235.913C97.0721 235.888 97.0648 235.864 97.051 235.843C96.8912 235.511 95.7541 235.228 94.8874 235.093Z" fill="#263238"/>
<path d="M94.9552 235.062C94.8172 235.066 94.6792 235.056 94.5434 235.031C94.5244 235.029 94.5065 235.021 94.4914 235.009C94.4763 234.997 94.4646 234.982 94.4573 234.964C94.4481 234.946 94.4434 234.926 94.4434 234.905C94.4434 234.885 94.4481 234.865 94.4573 234.847C94.4942 234.804 95.324 233.802 96.1108 233.735C96.3335 233.717 96.5542 233.788 96.7255 233.931C96.9652 234.14 96.9529 234.325 96.8914 234.441C96.7378 234.859 95.6744 235.062 94.9552 235.062ZM94.7954 234.835C95.4838 234.872 96.5841 234.644 96.7255 234.343C96.7255 234.343 96.7746 234.245 96.6148 234.109C96.5512 234.054 96.477 234.013 96.3966 233.987C96.3162 233.962 96.2315 233.953 96.1477 233.962C95.6177 234.11 95.1457 234.417 94.7954 234.841V234.835Z" fill="#263238"/>
<path d="M86.374 232.554L81.1616 231.079C81.0717 231.052 80.975 231.059 80.8899 231.098C80.8048 231.138 80.7374 231.208 80.7006 231.294L78.9426 235.246C78.9013 235.348 78.8819 235.456 78.8857 235.566C78.8895 235.675 78.9164 235.782 78.9646 235.88C79.0128 235.978 79.0812 236.065 79.1653 236.135C79.2495 236.205 79.3474 236.256 79.4528 236.285C81.2968 236.765 82.1819 236.9 84.4747 237.558C85.8884 237.951 87.9046 238.682 89.8531 239.236C91.8016 239.789 92.4532 237.889 91.6971 237.484C88.2795 235.677 88.0091 234.41 87.0748 233.058C86.9074 232.813 86.6594 232.635 86.374 232.554Z" fill="#FF7A00"/>
<path d="M94.6228 234.288L90.1725 231.214C90.0971 231.159 90.0041 231.134 89.9111 231.143C89.8182 231.152 89.7319 231.195 89.6685 231.263L86.718 234.435C86.6461 234.517 86.5925 234.613 86.5607 234.718C86.5289 234.822 86.5197 234.932 86.5337 235.04C86.5476 235.148 86.5844 235.252 86.6417 235.345C86.6989 235.438 86.7752 235.517 86.8656 235.578C88.433 236.629 89.2444 237.054 91.2052 238.412C92.4345 239.248 94.8133 241.104 96.4729 242.26C98.1326 243.415 99.368 241.83 98.778 241.203C96.1349 238.381 95.5571 236.611 95.1206 235.007C95.0449 234.716 94.8685 234.461 94.6228 234.288Z" fill="#FF7A00"/>
<path d="M91.0147 228.571L82.9932 224.582L83.823 222.406L92.3915 226.61L91.0147 228.571Z" fill="#FF7A00"/>
<path d="M80.5839 153.384L79.9077 155.154C79.8401 155.29 79.9999 155.431 80.2274 155.431H100.561C100.739 155.431 100.887 155.345 100.899 155.234L101.071 153.476C101.071 153.36 100.93 153.255 100.739 153.255H80.9035C80.8438 153.249 80.7836 153.258 80.728 153.281C80.6724 153.303 80.623 153.339 80.5839 153.384Z" fill="#FF7A00"/>
<path opacity="0.4" d="M80.5839 153.384L79.9077 155.154C79.8401 155.29 79.9999 155.431 80.2274 155.431H100.561C100.739 155.431 100.887 155.345 100.899 155.234L101.071 153.476C101.071 153.36 100.93 153.255 100.739 153.255H80.9035C80.8438 153.249 80.7836 153.258 80.728 153.281C80.6724 153.303 80.623 153.339 80.5839 153.384Z" fill="white"/>
<path d="M83.7866 155.603H83.2518C83.1473 155.603 83.0674 155.548 83.0736 155.48L83.3256 153.2C83.3256 153.138 83.4239 153.083 83.5284 153.083H84.0632C84.1677 153.083 84.2476 153.138 84.2415 153.2L83.9894 155.48C83.9833 155.548 83.8911 155.603 83.7866 155.603Z" fill="#FF7A00"/>
<path d="M96.3254 155.603H95.7968C95.6923 155.603 95.6123 155.548 95.6185 155.48L95.8644 153.2C95.8644 153.138 95.9689 153.083 96.0734 153.083H96.602C96.7065 153.083 96.7925 153.138 96.7802 153.2L96.5344 155.48C96.5036 155.548 96.436 155.603 96.3254 155.603Z" fill="#FF7A00"/>
<g style="mix-blend-mode:multiply">
<path d="M83.3192 259.698C92.4138 259.698 99.7863 259.165 99.7863 258.506C99.7863 257.847 92.4138 257.313 83.3192 257.313C74.2246 257.313 66.8521 257.847 66.8521 258.506C66.8521 259.165 74.2246 259.698 83.3192 259.698Z" fill="#F5F5F5"/>
</g>
<path d="M93.3509 256.822C90.4374 255.973 87.2042 254.885 85.2495 253.748C85.1942 253.711 85.1327 253.693 85.0774 253.662V240.471H90.9722C91.4196 240.445 91.8401 240.248 92.1475 239.922C92.455 239.596 92.6262 239.165 92.6262 238.716C92.6262 238.268 92.455 237.837 92.1475 237.511C91.8401 237.184 91.4196 236.988 90.9722 236.962H85.1082V176.834H81.5676V236.962H75.7098C75.4706 236.947 75.231 236.982 75.0058 237.064C74.7806 237.146 74.5745 237.273 74.4001 237.437C74.2257 237.601 74.0868 237.8 73.9918 238.02C73.8969 238.24 73.8479 238.477 73.8479 238.716C73.8479 238.956 73.8969 239.193 73.9918 239.413C74.0868 239.633 74.2257 239.831 74.4001 239.996C74.5745 240.16 74.7806 240.287 75.0058 240.369C75.231 240.451 75.4706 240.485 75.7098 240.471H81.5676V253.644C81.5123 253.644 81.457 253.693 81.4017 253.73C79.4163 254.885 76.2077 255.973 73.2941 256.803C73.0973 256.863 72.9283 256.991 72.8177 257.164C72.7071 257.337 72.6622 257.545 72.6912 257.748C72.7202 257.952 72.8211 258.138 72.9756 258.274C73.1302 258.409 73.3282 258.485 73.5338 258.487H93.1112C93.3077 258.474 93.4936 258.394 93.638 258.26C93.7824 258.126 93.8764 257.946 93.9045 257.751C93.9325 257.557 93.8929 257.358 93.7921 257.189C93.6914 257.019 93.5357 256.89 93.3509 256.822Z" fill="#E0E0E0"/>
<path d="M94.2543 170.712H72.3964C70.6379 170.712 69.2124 172.137 69.2124 173.896V180.393C69.2124 182.152 70.6379 183.577 72.3964 183.577H94.2543C96.0127 183.577 97.4383 182.152 97.4383 180.393V173.896C97.4383 172.137 96.0127 170.712 94.2543 170.712Z" fill="#FF7A00"/>
<path d="M72.1934 183.583V184.702C72.1934 185.624 73.1953 186.374 74.4246 186.374H92.2502C93.4796 186.374 94.4815 185.624 94.4815 184.702V183.583H72.1934Z" fill="#FF7A00"/>
<path opacity="0.3" d="M72.1934 183.583V184.702C72.1934 185.624 73.1953 186.374 74.4246 186.374H92.2502C93.4796 186.374 94.4815 185.624 94.4815 184.702V183.583H72.1934Z" fill="white"/>
</svg>
